G04 MADE WITH FRITZING*
G04 WWW.FRITZING.ORG*
G04 DOUBLE SIDED*
G04 HOLES PLATED*
G04 CONTOUR ON CENTER OF CONTOUR VECTOR*
%ASAXBY*%
%FSLAX23Y23*%
%MOIN*%
%OFA0B0*%
%SFA1.0B1.0*%
%ADD10C,0.039370*%
%ADD11C,0.082000*%
%ADD12C,0.066888*%
%ADD13C,0.070000*%
%ADD14R,0.082000X0.082000*%
%ADD15R,0.070000X0.070000*%
%ADD16R,0.157480X0.118110*%
%ADD17R,0.118110X0.157480*%
%ADD18R,0.157480X0.236220*%
%ADD19R,0.078740X0.118110*%
%ADD20R,0.118110X0.078740*%
%ADD21C,0.024000*%
%LNCOPPER1*%
G90*
G70*
G54D10*
X1925Y1663D03*
X1925Y1563D03*
X1925Y1463D03*
X1125Y863D03*
X1125Y963D03*
X1125Y1063D03*
X1125Y563D03*
X1325Y563D03*
X225Y463D03*
X2025Y363D03*
X924Y1464D03*
X1025Y1463D03*
X1125Y1463D03*
G54D11*
X825Y263D03*
X925Y263D03*
X1025Y263D03*
G54D12*
X1225Y1863D03*
X1225Y1763D03*
X1225Y1663D03*
X1225Y1563D03*
X1225Y1463D03*
X1225Y1363D03*
X1225Y1263D03*
X1225Y1163D03*
X1225Y1063D03*
X1225Y963D03*
X1225Y863D03*
X1225Y763D03*
X1225Y663D03*
X1225Y563D03*
X1327Y663D03*
X1327Y963D03*
X1327Y863D03*
X1825Y1863D03*
X1825Y1763D03*
X1825Y1663D03*
X1825Y1563D03*
X1825Y1463D03*
X1825Y1363D03*
X1825Y1263D03*
X1825Y1163D03*
X1825Y1063D03*
X1825Y963D03*
X1825Y863D03*
X1825Y763D03*
X1825Y663D03*
X1825Y563D03*
X1327Y1063D03*
X1625Y2363D03*
X1725Y2363D03*
X1525Y2363D03*
X1325Y2363D03*
X1425Y2363D03*
X1225Y2863D03*
X1225Y2763D03*
X1225Y2663D03*
X1225Y2563D03*
X1225Y2463D03*
X1225Y2363D03*
X1225Y2263D03*
X1225Y2163D03*
X1225Y2063D03*
X1225Y1963D03*
X1825Y2863D03*
X1825Y2763D03*
X1825Y2663D03*
X1825Y2563D03*
X1825Y2463D03*
X1825Y2363D03*
X1825Y2263D03*
X1825Y2163D03*
X1825Y2063D03*
X1825Y1963D03*
X1703Y1218D03*
X1703Y1117D03*
X1703Y1017D03*
X1703Y918D03*
X1703Y818D03*
X1225Y1863D03*
X1225Y1763D03*
X1225Y1663D03*
X1225Y1563D03*
X1225Y1463D03*
X1225Y1363D03*
X1225Y1263D03*
X1225Y1163D03*
X1225Y1063D03*
X1225Y963D03*
X1225Y863D03*
X1225Y763D03*
X1225Y663D03*
X1225Y563D03*
X1327Y663D03*
X1327Y963D03*
X1327Y863D03*
X1825Y1863D03*
X1825Y1763D03*
X1825Y1663D03*
X1825Y1563D03*
X1825Y1463D03*
X1825Y1363D03*
X1825Y1263D03*
X1825Y1163D03*
X1825Y1063D03*
X1825Y963D03*
X1825Y863D03*
X1825Y763D03*
X1825Y663D03*
X1825Y563D03*
X1327Y1063D03*
X1625Y2363D03*
X1725Y2363D03*
X1525Y2363D03*
X1325Y2363D03*
X1425Y2363D03*
X1225Y2863D03*
X1225Y2763D03*
X1225Y2663D03*
X1225Y2563D03*
X1225Y2463D03*
X1225Y2363D03*
X1225Y2263D03*
X1225Y2163D03*
X1225Y2063D03*
X1225Y1963D03*
X1825Y2863D03*
X1825Y2763D03*
X1825Y2663D03*
X1825Y2563D03*
X1825Y2463D03*
X1825Y2363D03*
X1825Y2263D03*
X1825Y2163D03*
X1825Y2063D03*
X1825Y1963D03*
X1703Y1218D03*
X1703Y1117D03*
X1703Y1017D03*
X1703Y918D03*
X1703Y818D03*
G54D13*
X2225Y1263D03*
X2725Y1263D03*
X2225Y1163D03*
X2725Y1163D03*
X2225Y1063D03*
X2725Y1063D03*
X2225Y963D03*
X2725Y963D03*
X2225Y863D03*
X2725Y863D03*
X2225Y763D03*
X2725Y763D03*
X2225Y663D03*
X2725Y663D03*
X2225Y563D03*
X2725Y563D03*
X825Y2363D03*
X325Y2363D03*
X825Y2463D03*
X325Y2463D03*
X825Y2563D03*
X325Y2563D03*
X825Y2663D03*
X325Y2663D03*
X825Y2763D03*
X325Y2763D03*
X825Y2863D03*
X325Y2863D03*
X825Y2963D03*
X325Y2963D03*
X825Y3063D03*
X325Y3063D03*
X825Y1463D03*
X325Y1463D03*
X825Y1563D03*
X325Y1563D03*
X825Y1663D03*
X325Y1663D03*
X825Y1763D03*
X325Y1763D03*
X825Y1863D03*
X325Y1863D03*
X825Y1963D03*
X325Y1963D03*
X825Y2063D03*
X325Y2063D03*
X825Y2163D03*
X325Y2163D03*
X825Y563D03*
X325Y563D03*
X825Y663D03*
X325Y663D03*
X825Y763D03*
X325Y763D03*
X825Y863D03*
X325Y863D03*
X825Y963D03*
X325Y963D03*
X825Y1063D03*
X325Y1063D03*
X825Y1163D03*
X325Y1163D03*
X825Y1263D03*
X325Y1263D03*
X2225Y2163D03*
X2725Y2163D03*
X2225Y2063D03*
X2725Y2063D03*
X2225Y1963D03*
X2725Y1963D03*
X2225Y1863D03*
X2725Y1863D03*
X2225Y1763D03*
X2725Y1763D03*
X2225Y1663D03*
X2725Y1663D03*
X2225Y1563D03*
X2725Y1563D03*
X2225Y1463D03*
X2725Y1463D03*
G54D10*
X2325Y2763D03*
X2425Y2863D03*
X2625Y363D03*
X2425Y463D03*
G54D14*
X825Y263D03*
G54D15*
X2725Y563D03*
X2725Y1163D03*
X325Y3063D03*
X325Y2463D03*
X325Y2163D03*
X325Y1563D03*
X325Y1263D03*
X325Y663D03*
X2725Y1463D03*
X2725Y2063D03*
G54D16*
X2925Y1463D03*
X2925Y1663D03*
X2925Y1863D03*
X2925Y2063D03*
G54D17*
X2425Y263D03*
X2825Y263D03*
X2625Y263D03*
G54D16*
X2625Y2863D03*
X2625Y3063D03*
X2925Y563D03*
X2925Y763D03*
X2925Y963D03*
X2925Y1163D03*
X125Y3063D03*
X125Y2863D03*
X125Y2663D03*
X125Y2463D03*
X125Y2163D03*
X125Y1963D03*
X125Y1763D03*
X125Y1563D03*
X125Y1263D03*
X125Y1063D03*
X125Y863D03*
X125Y663D03*
G54D18*
X225Y263D03*
X425Y263D03*
G54D19*
X2225Y3063D03*
X2125Y3063D03*
X2025Y3063D03*
X1225Y3063D03*
X1325Y3063D03*
X1425Y3063D03*
X1525Y3063D03*
X1625Y3063D03*
X1725Y3063D03*
X2025Y263D03*
X2125Y263D03*
X2225Y263D03*
X1925Y3063D03*
X2325Y3063D03*
X2425Y3063D03*
G54D20*
X2625Y2363D03*
X2625Y2463D03*
X2625Y2563D03*
X2625Y2663D03*
G54D21*
X225Y444D02*
X225Y376D01*
D02*
X1124Y664D02*
X924Y564D01*
D02*
X924Y564D02*
X851Y564D01*
D02*
X1194Y664D02*
X1124Y664D01*
D02*
X306Y545D02*
X238Y477D01*
D02*
X525Y763D02*
X343Y582D01*
D02*
X624Y763D02*
X806Y582D01*
D02*
X624Y1263D02*
X624Y763D01*
D02*
X806Y1445D02*
X624Y1263D01*
D02*
X525Y2163D02*
X525Y1664D01*
D02*
X343Y2345D02*
X525Y2163D01*
D02*
X525Y1664D02*
X343Y1482D01*
D02*
X525Y1263D02*
X525Y763D01*
D02*
X343Y1445D02*
X525Y1263D01*
D02*
X347Y550D02*
X797Y280D01*
D02*
X625Y163D02*
X498Y227D01*
D02*
X924Y163D02*
X625Y163D01*
D02*
X924Y231D02*
X924Y163D01*
D02*
X624Y2163D02*
X624Y1664D01*
D02*
X624Y1664D02*
X806Y1482D01*
D02*
X806Y2345D02*
X624Y2163D01*
D02*
X924Y464D02*
X924Y295D01*
D02*
X843Y545D02*
X924Y464D01*
D02*
X1255Y563D02*
X1306Y563D01*
D02*
X1194Y563D02*
X1144Y563D01*
D02*
X2424Y1963D02*
X2243Y2145D01*
D02*
X2424Y1464D02*
X2424Y1963D01*
D02*
X2243Y1282D02*
X2424Y1464D01*
D02*
X843Y1645D02*
X1011Y1477D01*
D02*
X843Y1745D02*
X1111Y1477D01*
D02*
X799Y2368D02*
X350Y2458D01*
D02*
X843Y1545D02*
X911Y1477D01*
D02*
X2206Y1645D02*
X1924Y1364D01*
D02*
X1924Y1364D02*
X1855Y1363D01*
D02*
X2206Y1545D02*
X1924Y1262D01*
D02*
X1924Y1262D02*
X1855Y1263D01*
D02*
X2206Y1445D02*
X1924Y1163D01*
D02*
X1924Y1163D02*
X1855Y1163D01*
D02*
X1725Y2864D02*
X1246Y2385D01*
D02*
X1725Y3010D02*
X1725Y2864D01*
D02*
X1625Y2864D02*
X1246Y2485D01*
D02*
X1625Y3010D02*
X1625Y2864D01*
D02*
X1524Y2864D02*
X1246Y2585D01*
D02*
X1525Y3010D02*
X1524Y2864D01*
D02*
X1424Y2864D02*
X1246Y2685D01*
D02*
X1424Y3010D02*
X1424Y2864D01*
D02*
X1324Y2864D02*
X1246Y2785D01*
D02*
X1324Y3010D02*
X1324Y2864D01*
D02*
X1225Y3010D02*
X1225Y2894D01*
D02*
X923Y763D02*
X851Y763D01*
D02*
X923Y662D02*
X851Y663D01*
D02*
X1111Y850D02*
X923Y662D01*
D02*
X1194Y863D02*
X1144Y863D01*
D02*
X1111Y1050D02*
X923Y864D01*
D02*
X1194Y1063D02*
X1144Y1063D01*
D02*
X1111Y950D02*
X923Y763D01*
D02*
X1194Y963D02*
X1144Y963D01*
D02*
X923Y864D02*
X851Y863D01*
D02*
X1194Y1363D02*
X1123Y1363D01*
D02*
X1194Y1163D02*
X1123Y1164D01*
D02*
X851Y1163D02*
X924Y1164D01*
D02*
X841Y2143D02*
X1205Y1687D01*
D02*
X1124Y2762D02*
X1126Y2365D01*
D02*
X1126Y2365D02*
X1203Y2285D01*
D02*
X1123Y1164D02*
X924Y1062D01*
D02*
X1123Y1262D02*
X1194Y1263D01*
D02*
X1123Y1363D02*
X924Y1262D01*
D02*
X924Y1262D02*
X851Y1263D01*
D02*
X924Y1164D02*
X1123Y1262D01*
D02*
X924Y1062D02*
X851Y1063D01*
D02*
X843Y2845D02*
X926Y2762D01*
D02*
X843Y3045D02*
X1124Y2762D01*
D02*
X926Y2762D02*
X923Y2365D01*
D02*
X843Y2945D02*
X1025Y2762D01*
D02*
X1025Y2762D02*
X1024Y2365D01*
D02*
X1024Y2365D02*
X1203Y2185D01*
D02*
X923Y2365D02*
X1203Y2085D01*
D02*
X2011Y377D02*
X1846Y542D01*
D02*
X2124Y363D02*
X2124Y317D01*
D02*
X2223Y363D02*
X2224Y317D01*
D02*
X1846Y742D02*
X2223Y363D01*
D02*
X1846Y642D02*
X2124Y363D01*
D02*
X2025Y317D02*
X2025Y344D01*
D02*
X301Y975D02*
X198Y1027D01*
D02*
X298Y863D02*
X198Y863D01*
D02*
X301Y752D02*
X198Y700D01*
D02*
X306Y1082D02*
X178Y1210D01*
D02*
X306Y2882D02*
X178Y3010D01*
D02*
X301Y2775D02*
X198Y2827D01*
D02*
X298Y2663D02*
X198Y2663D01*
D02*
X301Y2552D02*
X198Y2500D01*
D02*
X306Y1982D02*
X178Y2110D01*
D02*
X301Y1875D02*
X198Y1927D01*
D02*
X298Y1763D02*
X198Y1763D01*
D02*
X301Y1652D02*
X198Y1600D01*
D02*
X2751Y963D02*
X2851Y963D01*
D02*
X2748Y1075D02*
X2851Y1127D01*
D02*
X2748Y1975D02*
X2851Y2027D01*
D02*
X2751Y1863D02*
X2851Y1863D01*
D02*
X2748Y1752D02*
X2851Y1700D01*
D02*
X2743Y1645D02*
X2871Y1517D01*
D02*
X2743Y745D02*
X2871Y617D01*
D02*
X2748Y852D02*
X2851Y800D01*
D02*
X1925Y2964D02*
X1846Y2885D01*
D02*
X1925Y3010D02*
X1925Y2964D01*
D02*
X2426Y2964D02*
X1846Y2385D01*
D02*
X2425Y3010D02*
X2426Y2964D01*
D02*
X2326Y2964D02*
X1846Y2485D01*
D02*
X2325Y3010D02*
X2326Y2964D01*
D02*
X2225Y2964D02*
X1846Y2585D01*
D02*
X2225Y3010D02*
X2225Y2964D01*
D02*
X2125Y2964D02*
X1846Y2685D01*
D02*
X2125Y3010D02*
X2125Y2964D01*
D02*
X2025Y2964D02*
X1846Y2785D01*
D02*
X2025Y3010D02*
X2025Y2964D01*
D02*
X2225Y2464D02*
X1846Y2085D01*
D02*
X2571Y2463D02*
X2225Y2464D01*
D02*
X2225Y2565D02*
X1846Y2185D01*
D02*
X2571Y2563D02*
X2225Y2565D01*
D02*
X2225Y2662D02*
X1846Y2285D01*
D02*
X2571Y2663D02*
X2225Y2662D01*
D02*
X1224Y262D02*
X1057Y263D01*
D02*
X1224Y533D02*
X1224Y262D01*
D02*
X1203Y1985D02*
X843Y2345D01*
D02*
X1255Y658D02*
X1794Y568D01*
D02*
X2225Y2363D02*
X1846Y1985D01*
D02*
X2571Y2363D02*
X2225Y2363D01*
D02*
X1906Y1563D02*
X1855Y1563D01*
D02*
X2024Y1664D02*
X1938Y1577D01*
D02*
X2024Y1963D02*
X2024Y1664D01*
D02*
X2198Y1963D02*
X2024Y1963D01*
D02*
X2024Y2062D02*
X2198Y2063D01*
D02*
X1925Y1963D02*
X2024Y2062D01*
D02*
X1925Y1682D02*
X1925Y1963D01*
D02*
X1855Y1663D02*
X1906Y1663D01*
D02*
X2124Y562D02*
X1846Y842D01*
D02*
X2198Y563D02*
X2124Y562D01*
D02*
X2124Y662D02*
X1846Y942D01*
D02*
X2198Y663D02*
X2124Y662D01*
D02*
X2124Y764D02*
X1846Y1042D01*
D02*
X2198Y764D02*
X2124Y764D01*
D02*
X1906Y1463D02*
X1855Y1463D01*
D02*
X2124Y1664D02*
X1938Y1477D01*
D02*
X2124Y1863D02*
X2124Y1664D01*
D02*
X2198Y1863D02*
X2124Y1863D01*
D02*
X1205Y1587D02*
X841Y2043D01*
D02*
X841Y1943D02*
X1205Y1487D01*
D02*
X2551Y2839D02*
X2343Y2769D01*
D02*
X2571Y3010D02*
X2438Y2877D01*
D02*
X2699Y2068D02*
X2250Y2158D01*
D02*
X2625Y344D02*
X2625Y336D01*
D02*
X2243Y845D02*
X2771Y317D01*
D02*
X2699Y1168D02*
X2250Y1258D01*
D02*
X2425Y444D02*
X2425Y336D01*
G04 End of Copper1*
M02*