G04 MADE WITH FRITZING*
G04 WWW.FRITZING.ORG*
G04 DOUBLE SIDED*
G04 HOLES PLATED*
G04 CONTOUR ON CENTER OF CONTOUR VECTOR*
%ASAXBY*%
%FSLAX23Y23*%
%MOIN*%
%OFA0B0*%
%SFA1.0B1.0*%
%ADD10C,0.049370*%
%ADD11C,0.092000*%
%ADD12C,0.076888*%
%ADD13C,0.080000*%
%ADD14R,0.092000X0.092000*%
%ADD15R,0.080000X0.080000*%
%ADD16R,0.167480X0.128110*%
%ADD17R,0.128110X0.167480*%
%ADD18R,0.167480X0.246220*%
%ADD19R,0.088740X0.128110*%
%ADD20R,0.128110X0.088740*%
%LNMASK1*%
G90*
G70*
G54D10*
X1925Y1663D03*
X1925Y1563D03*
X1925Y1463D03*
X1125Y863D03*
X1125Y963D03*
X1125Y1063D03*
X1125Y563D03*
X1325Y563D03*
X225Y463D03*
X2025Y363D03*
X924Y1464D03*
X1025Y1463D03*
X1125Y1463D03*
G54D11*
X825Y263D03*
X925Y263D03*
X1025Y263D03*
G54D12*
X1225Y1863D03*
X1225Y1763D03*
X1225Y1663D03*
X1225Y1563D03*
X1225Y1463D03*
X1225Y1363D03*
X1225Y1263D03*
X1225Y1163D03*
X1225Y1063D03*
X1225Y963D03*
X1225Y863D03*
X1225Y763D03*
X1225Y663D03*
X1225Y563D03*
X1327Y663D03*
X1327Y963D03*
X1327Y863D03*
X1825Y1863D03*
X1825Y1763D03*
X1825Y1663D03*
X1825Y1563D03*
X1825Y1463D03*
X1825Y1363D03*
X1825Y1263D03*
X1825Y1163D03*
X1825Y1063D03*
X1825Y963D03*
X1825Y863D03*
X1825Y763D03*
X1825Y663D03*
X1825Y563D03*
X1327Y1063D03*
X1625Y2363D03*
X1725Y2363D03*
X1525Y2363D03*
X1325Y2363D03*
X1425Y2363D03*
X1225Y2863D03*
X1225Y2763D03*
X1225Y2663D03*
X1225Y2563D03*
X1225Y2463D03*
X1225Y2363D03*
X1225Y2263D03*
X1225Y2163D03*
X1225Y2063D03*
X1225Y1963D03*
X1825Y2863D03*
X1825Y2763D03*
X1825Y2663D03*
X1825Y2563D03*
X1825Y2463D03*
X1825Y2363D03*
X1825Y2263D03*
X1825Y2163D03*
X1825Y2063D03*
X1825Y1963D03*
X1703Y1218D03*
X1703Y1117D03*
X1703Y1017D03*
X1703Y918D03*
X1703Y818D03*
X1225Y1863D03*
X1225Y1763D03*
X1225Y1663D03*
X1225Y1563D03*
X1225Y1463D03*
X1225Y1363D03*
X1225Y1263D03*
X1225Y1163D03*
X1225Y1063D03*
X1225Y963D03*
X1225Y863D03*
X1225Y763D03*
X1225Y663D03*
X1225Y563D03*
X1327Y663D03*
X1327Y963D03*
X1327Y863D03*
X1825Y1863D03*
X1825Y1763D03*
X1825Y1663D03*
X1825Y1563D03*
X1825Y1463D03*
X1825Y1363D03*
X1825Y1263D03*
X1825Y1163D03*
X1825Y1063D03*
X1825Y963D03*
X1825Y863D03*
X1825Y763D03*
X1825Y663D03*
X1825Y563D03*
X1327Y1063D03*
X1625Y2363D03*
X1725Y2363D03*
X1525Y2363D03*
X1325Y2363D03*
X1425Y2363D03*
X1225Y2863D03*
X1225Y2763D03*
X1225Y2663D03*
X1225Y2563D03*
X1225Y2463D03*
X1225Y2363D03*
X1225Y2263D03*
X1225Y2163D03*
X1225Y2063D03*
X1225Y1963D03*
X1825Y2863D03*
X1825Y2763D03*
X1825Y2663D03*
X1825Y2563D03*
X1825Y2463D03*
X1825Y2363D03*
X1825Y2263D03*
X1825Y2163D03*
X1825Y2063D03*
X1825Y1963D03*
X1703Y1218D03*
X1703Y1117D03*
X1703Y1017D03*
X1703Y918D03*
X1703Y818D03*
G54D13*
X2225Y1263D03*
X2725Y1263D03*
X2225Y1163D03*
X2725Y1163D03*
X2225Y1063D03*
X2725Y1063D03*
X2225Y963D03*
X2725Y963D03*
X2225Y863D03*
X2725Y863D03*
X2225Y763D03*
X2725Y763D03*
X2225Y663D03*
X2725Y663D03*
X2225Y563D03*
X2725Y563D03*
X825Y2363D03*
X325Y2363D03*
X825Y2463D03*
X325Y2463D03*
X825Y2563D03*
X325Y2563D03*
X825Y2663D03*
X325Y2663D03*
X825Y2763D03*
X325Y2763D03*
X825Y2863D03*
X325Y2863D03*
X825Y2963D03*
X325Y2963D03*
X825Y3063D03*
X325Y3063D03*
X825Y1463D03*
X325Y1463D03*
X825Y1563D03*
X325Y1563D03*
X825Y1663D03*
X325Y1663D03*
X825Y1763D03*
X325Y1763D03*
X825Y1863D03*
X325Y1863D03*
X825Y1963D03*
X325Y1963D03*
X825Y2063D03*
X325Y2063D03*
X825Y2163D03*
X325Y2163D03*
X825Y563D03*
X325Y563D03*
X825Y663D03*
X325Y663D03*
X825Y763D03*
X325Y763D03*
X825Y863D03*
X325Y863D03*
X825Y963D03*
X325Y963D03*
X825Y1063D03*
X325Y1063D03*
X825Y1163D03*
X325Y1163D03*
X825Y1263D03*
X325Y1263D03*
X2225Y2163D03*
X2725Y2163D03*
X2225Y2063D03*
X2725Y2063D03*
X2225Y1963D03*
X2725Y1963D03*
X2225Y1863D03*
X2725Y1863D03*
X2225Y1763D03*
X2725Y1763D03*
X2225Y1663D03*
X2725Y1663D03*
X2225Y1563D03*
X2725Y1563D03*
X2225Y1463D03*
X2725Y1463D03*
G54D10*
X2325Y2763D03*
X2425Y2863D03*
X2625Y363D03*
X2425Y463D03*
G54D14*
X825Y263D03*
G54D15*
X2725Y563D03*
X2725Y1163D03*
X325Y3063D03*
X325Y2463D03*
X325Y2163D03*
X325Y1563D03*
X325Y1263D03*
X325Y663D03*
X2725Y1463D03*
X2725Y2063D03*
G54D16*
X2925Y1463D03*
X2925Y1663D03*
X2925Y1863D03*
X2925Y2063D03*
G54D17*
X2425Y263D03*
X2625Y263D03*
X2825Y263D03*
G54D16*
X2625Y2863D03*
X2625Y3063D03*
X2925Y563D03*
X2925Y763D03*
X2925Y963D03*
X2925Y1163D03*
X125Y3063D03*
X125Y2863D03*
X125Y2663D03*
X125Y2463D03*
X125Y2163D03*
X125Y1963D03*
X125Y1763D03*
X125Y1563D03*
X125Y1263D03*
X125Y1063D03*
X125Y863D03*
X125Y663D03*
G54D18*
X225Y263D03*
X425Y263D03*
G54D19*
X2225Y3063D03*
X2125Y3063D03*
X2025Y3063D03*
X1225Y3063D03*
X1325Y3063D03*
X1425Y3063D03*
X1525Y3063D03*
X1625Y3063D03*
X1725Y3063D03*
X2025Y263D03*
X2125Y263D03*
X2225Y263D03*
X1925Y3063D03*
X2325Y3063D03*
X2425Y3063D03*
G54D20*
X2625Y2363D03*
X2625Y2463D03*
X2625Y2563D03*
X2625Y2663D03*
G04 End of Mask1*
M02*