; NON-PLATED HOLES START AT T1
; THROUGH (PLATED) HOLES START AT T100
M48
INCH
T100C0.030000
T101C0.042000
T102C0.039111
T103C0.015748
%
T100
X022245Y019633
X003245Y024633
X008245Y016633
X027245Y008633
X022245Y010633
X008245Y028633
X027245Y005633
X003245Y016633
X027245Y010633
X003245Y015633
X003245Y009633
X027245Y015633
X027245Y016633
X008245Y030633
X008245Y011633
X022245Y006633
X022245Y011633
X003245Y026633
X008245Y005633
X022245Y009633
X008245Y008633
X027245Y011633
X003245Y006633
X008245Y021633
X003245Y019633
X022245Y016633
X003245Y021633
X022245Y012633
X027245Y019633
X003245Y020633
X008245Y027633
X008245Y024633
X003245Y008633
X008245Y017633
X008245Y007633
X027245Y014633
X027245Y009633
X008245Y023633
X022245Y015633
X022245Y007633
X022245Y020633
X022245Y005633
X027245Y012633
X003245Y029633
X008245Y006633
X003245Y028633
X008245Y015633
X022245Y014633
X003245Y014633
X027245Y007633
X008245Y009633
X008245Y029633
X003245Y027633
X003245Y023633
X003245Y011633
X027245Y018633
X027245Y017633
X003245Y017633
X022245Y018633
X008245Y020633
X008245Y019633
X008245Y014633
X008245Y018633
X003245Y005633
X027245Y006633
X008245Y026633
X027245Y021633
X003245Y010633
X003245Y018633
X003245Y030633
X022245Y021633
X008245Y012633
X022245Y017633
X022245Y008633
X008245Y010633
X027245Y020633
X003245Y012633
X003245Y025633
X003245Y007633
X008245Y025633
T101
X009245Y002633
X010245Y002633
X008245Y002633
T102
X012245Y021633
X018245Y016633
X012245Y009633
X017034Y010174
X018245Y024633
X017245Y023633
X012245Y008633
X012245Y028633
X012245Y007633
X012245Y022633
X018245Y007633
X013269Y008633
X012245Y012633
X012245Y025633
X013269Y006633
X012245Y013633
X015245Y023633
X012245Y005633
X018245Y006633
X012245Y019633
X018245Y005633
X018245Y009633
X013269Y010634
X018245Y008633
X018245Y026633
X012245Y024633
X012245Y016633
X018245Y011633
X018245Y022633
X012245Y010633
X012245Y018632
X018245Y021633
X012245Y027633
X018245Y010633
X012245Y014633
X017034Y011174
X018245Y027633
X012245Y017633
X018245Y019633
X017034Y009175
X016245Y023633
X012245Y026633
X012245Y011633
X018245Y012633
X014245Y023633
X018245Y015633
X013269Y009634
X012245Y023633
X018245Y013633
X018245Y014633
X018245Y018632
X017034Y012175
X013245Y023633
X018245Y025633
X018245Y023633
X012245Y015633
X018245Y017633
X012245Y006633
X017034Y008175
X012245Y020633
X018245Y020633
X018245Y028633
T103
X023245Y027633
X009243Y014638
X002245Y004633
X019245Y015633
X013245Y005633
X011245Y008633
X011245Y014633
X011245Y009633
X011245Y010633
X024245Y028633
X010245Y014633
X019245Y014633
X019245Y016633
X020245Y003633
X024245Y004632
X011245Y005633
X026245Y003632
T00
M30
